<?xml version="1.0" encoding="utf-8"?>
<!-- Generator: Adobe Illustrator 25.1.0, SVG Export Plug-In . SVG Version: 6.00 Build 0)  -->
<svg version="1.1" id="Layer_1" xmlns="http://www.w3.org/2000/svg" xmlns:xlink="http://www.w3.org/1999/xlink" x="0px" y="0px"
	 viewBox="0 0 153 27" style="enable-background:new 0 0 153 27;" xml:space="preserve">
<style type="text/css">
	.st0{clip-path:url(#SVGID_2_);}
	.st1{font-family:'MyriadPro-Regular';}
	.st2{font-size:12px;}
</style>
<g>
	<defs>
		<rect id="SVGID_1_" width="27" height="27"/>
	</defs>
	<clipPath id="SVGID_2_">
		<use xlink:href="#SVGID_1_"  style="overflow:visible;"/>
	</clipPath>
	<g class="st0">
		<path d="M20.2,1.1L9,1.1c-1.2,0-2.2,1-2.2,2.2v3.4H9V5.6h11.2v15.8H9v-1.1H6.8v3.4c0,1.2,1,2.2,2.2,2.2h11.2c1.2,0,2.2-1,2.2-2.2
			V3.4C22.5,2.1,21.5,1.1,20.2,1.1z M11.2,16.9h2.2V9H5.6v2.2h4l-6.3,6.3L5,19.1l6.3-6.3V16.9z"/>
	</g>
</g>
<text transform="matrix(0.7586 0 0 1 26.9995 16.916)" class="st1 st2">Agregar a la pantalla principal</text>
</svg>
