<?xml version="1.0" encoding="utf-8"?>
<!-- Generator: Adobe Illustrator 25.1.0, SVG Export Plug-In . SVG Version: 6.00 Build 0)  -->
<svg version="1.1" id="Layer_1" xmlns="http://www.w3.org/2000/svg" xmlns:xlink="http://www.w3.org/1999/xlink" x="0px" y="0px"
	 viewBox="0 0 101 27" style="enable-background:new 0 0 101 27;" xml:space="preserve">
<style type="text/css">
	.st0{font-family:'MyriadPro-Regular';}
	.st1{font-size:12px;}
</style>
<path d="M9.3,25.9c-0.4,0-0.8-0.2-1.2-0.5c-0.3-0.3-0.5-0.7-0.5-1.2V2.8c0-0.5,0.2-0.8,0.5-1.2c0.3-0.3,0.7-0.5,1.2-0.5h9v4.2h-9
	v16.3h12.4V18h1.7v6.2c0,0.5-0.2,0.8-0.5,1.2s-0.7,0.5-1.2,0.5H9.3z M22.6,15.4l-5.2-5.2l1.2-1.2l3.2,3.2V3.7h1.7v8.5l3.2-3.2
	l1.2,1.2L22.6,15.4z"/>
<text transform="matrix(0.6636 0 0 1 31.6777 17.0859)" class="st0 st1">Instalar aplicación</text>
</svg>
