<?xml version="1.0" encoding="utf-8"?>
<!-- Generator: Adobe Illustrator 25.1.0, SVG Export Plug-In . SVG Version: 6.00 Build 0)  -->
<svg version="1.1" id="Layer_1" xmlns="http://www.w3.org/2000/svg" xmlns:xlink="http://www.w3.org/1999/xlink" x="0px" y="0px"
	 viewBox="0 0 161 30" style="enable-background:new 0 0 161 30;" xml:space="preserve">
<style type="text/css">
	.st0{font-family:'MyriadPro-Regular';}
	.st1{font-size:12px;}
</style>
<path d="M152,19.3c0,0.5-0.1,1-0.3,1.4c-0.2,0.5-0.5,0.9-0.8,1.2c-0.3,0.3-0.8,0.6-1.2,0.8c-0.5,0.2-0.9,0.3-1.4,0.3l-9.5,0
	c-1,0-1.9-0.4-2.7-1.1c-0.7-0.7-1.1-1.7-1.1-2.7l0-9.5c0-0.5,0.1-1,0.3-1.4c0.2-0.5,0.5-0.9,0.8-1.2c0.3-0.3,0.8-0.6,1.2-0.8
	c0.5-0.2,0.9-0.3,1.4-0.3l9.5,0c1,0,1.9,0.4,2.7,1.1c0.7,0.7,1.1,1.7,1.1,2.7L152,19.3z M150.8,10c0-0.4-0.1-0.7-0.2-1
	c-0.1-0.3-0.3-0.6-0.6-0.9c-0.2-0.2-0.5-0.4-0.9-0.6c-0.3-0.1-0.7-0.2-1-0.2l-9.2,0c-0.4,0-0.7,0.1-1,0.2c-0.3,0.1-0.6,0.3-0.9,0.6
	c-0.2,0.2-0.4,0.5-0.6,0.9c-0.1,0.3-0.2,0.7-0.2,1l0,9.1c0,0.4,0.1,0.7,0.2,1c0.1,0.3,0.3,0.6,0.6,0.9c0.2,0.2,0.5,0.4,0.9,0.6
	c0.3,0.1,0.7,0.2,1,0.2l9.2,0c0.4,0,0.7-0.1,1-0.2c0.3-0.1,0.6-0.3,0.9-0.6c0.2-0.2,0.4-0.5,0.6-0.9c0.1-0.3,0.2-0.7,0.2-1L150.8,10
	z"/>
<path d="M140.1,14h7.1c0.4,0,0.6,0.3,0.6,0.6v0c0,0.4-0.3,0.6-0.6,0.6h-7.1c-0.4,0-0.6-0.3-0.6-0.6v0C139.5,14.3,139.8,14,140.1,14z
	"/>
<path d="M144.3,11.1v7.1c0,0.4-0.3,0.6-0.6,0.6l0,0c-0.4,0-0.6-0.3-0.6-0.6v-7.1c0-0.4,0.3-0.6,0.6-0.6l0,0
	C144,10.5,144.3,10.8,144.3,11.1z"/>
<text transform="matrix(0.8558 0 0 1 3.4453 18.8301)" class="st0 st1">Agregar a la pantalla principal</text>
</svg>
